<?xml version="1.0" standalone="no"?>
<!DOCTYPE svg PUBLIC "-//W3C//DTD SVG 20010904//EN"
 "http://www.w3.org/TR/2001/REC-SVG-20010904/DTD/svg10.dtd">
<svg version="1.0" xmlns="http://www.w3.org/2000/svg"
 width="244.000000pt" height="244.000000pt" viewBox="0 0 244.000000 244.000000"
 preserveAspectRatio="xMidYMid meet">

<g transform="translate(0.000000,244.000000) scale(0.100000,-0.100000)"
fill="#000000" stroke="none">
<path d="M980 2370 c-357 -18 -555 -81 -665 -213 -24 -29 -50 -49 -69 -53 -50
-11 -101 -40 -135 -79 -59 -68 -24 -107 194 -217 166 -84 303 -168 344 -212
l24 -25 -35 -78 c-68 -149 -104 -299 -116 -485 -4 -65 -6 -118 -4 -118 2 0 12
10 23 23 19 22 19 22 13 -53 l-7 -75 24 20 c13 10 47 40 74 66 65 61 143 119
160 119 15 0 -47 -187 -96 -288 -39 -80 -115 -158 -201 -206 -66 -37 -66 -37
-106 -129 -72 -166 -83 -226 -53 -286 12 -22 31 -46 44 -52 12 -7 24 -16 27
-20 3 -4 107 28 230 72 124 44 362 127 530 185 168 58 345 126 393 151 125 65
315 193 392 264 l65 61 -7 89 -6 89 49 1 c27 0 69 8 94 17 55 21 69 53 70 162
0 50 8 100 24 150 59 184 74 362 41 475 -36 125 -120 261 -230 370 -183 184
-353 255 -645 270 -231 11 -298 12 -440 5z m369 -625 c118 -23 259 -76 346
-130 142 -88 250 -236 280 -383 8 -40 15 -150 17 -276 l2 -209 -54 -49 c-78
-70 -239 -178 -361 -242 -113 -59 -154 -75 -519 -200 -135 -46 -323 -112 -419
-146 -95 -34 -174 -60 -176 -58 -2 2 7 61 19 131 l22 128 77 44 c90 51 114 69
181 133 114 109 210 274 285 486 33 93 73 237 68 242 -2 2 -64 -12 -138 -30
-155 -38 -287 -96 -371 -162 l-58 -45 0 28 c0 55 29 219 55 308 72 255 190
396 370 442 64 16 259 10 374 -12z"/>
</g>
</svg>
